<mxfile host="app.diagrams.net" agent="Mozilla/5.0 (Windows NT 10.0; Win64; x64; rv:139.0) Gecko/20100101 Firefox/139.0" version="27.1.4">
  <diagram name="Page-1" id="O3LLQqh4CwTxFtw0afM1">
    <mxGraphModel dx="868" dy="446" grid="1" gridSize="10" guides="1" tooltips="1" connect="1" arrows="1" fold="1" page="1" pageScale="1" pageWidth="850" pageHeight="1100" math="0" shadow="0">
      <root>
        <mxCell id="0" />
        <mxCell id="1" parent="0" />
        <mxCell id="RXgc2p9tWntE05DesjV8-1" value="" style="verticalLabelPosition=bottom;shadow=0;dashed=0;align=center;html=1;verticalAlign=top;shape=mxgraph.electrical.mosfets1.n-channel_mosfet_1;" vertex="1" parent="1">
          <mxGeometry x="130" y="160" width="80" height="80" as="geometry" />
        </mxCell>
        <mxCell id="RXgc2p9tWntE05DesjV8-3" value="" style="ellipse;" vertex="1" parent="1">
          <mxGeometry x="180" y="120" width="10" height="10" as="geometry" />
        </mxCell>
        <mxCell id="RXgc2p9tWntE05DesjV8-5" style="edgeStyle=orthogonalEdgeStyle;rounded=0;orthogonalLoop=1;jettySize=auto;html=1;exitX=0.5;exitY=1;exitDx=0;exitDy=0;entryX=0.7;entryY=0;entryDx=0;entryDy=0;entryPerimeter=0;endArrow=none;startFill=0;" edge="1" parent="1" source="RXgc2p9tWntE05DesjV8-3" target="RXgc2p9tWntE05DesjV8-1">
          <mxGeometry relative="1" as="geometry" />
        </mxCell>
        <mxCell id="RXgc2p9tWntE05DesjV8-6" value="" style="verticalLabelPosition=bottom;shadow=0;dashed=0;align=center;html=1;verticalAlign=top;shape=mxgraph.electrical.mosfets1.n-channel_mosfet_1;" vertex="1" parent="1">
          <mxGeometry x="130" y="360" width="80" height="80" as="geometry" />
        </mxCell>
        <mxCell id="RXgc2p9tWntE05DesjV8-7" value="" style="pointerEvents=1;verticalLabelPosition=bottom;shadow=0;dashed=0;align=center;html=1;verticalAlign=top;shape=mxgraph.electrical.signal_sources.signal_ground;" vertex="1" parent="1">
          <mxGeometry x="177.5" y="500" width="15" height="10" as="geometry" />
        </mxCell>
        <mxCell id="RXgc2p9tWntE05DesjV8-8" style="edgeStyle=orthogonalEdgeStyle;rounded=0;orthogonalLoop=1;jettySize=auto;html=1;exitX=0.7;exitY=1;exitDx=0;exitDy=0;exitPerimeter=0;entryX=0.5;entryY=0;entryDx=0;entryDy=0;entryPerimeter=0;endArrow=none;startFill=0;" edge="1" parent="1" source="RXgc2p9tWntE05DesjV8-6" target="RXgc2p9tWntE05DesjV8-7">
          <mxGeometry relative="1" as="geometry">
            <Array as="points">
              <mxPoint x="186" y="500" />
            </Array>
          </mxGeometry>
        </mxCell>
        <mxCell id="RXgc2p9tWntE05DesjV8-9" style="edgeStyle=orthogonalEdgeStyle;rounded=0;orthogonalLoop=1;jettySize=auto;html=1;exitX=0.7;exitY=0;exitDx=0;exitDy=0;exitPerimeter=0;entryX=0.7;entryY=1;entryDx=0;entryDy=0;entryPerimeter=0;endArrow=none;startFill=0;" edge="1" parent="1" source="RXgc2p9tWntE05DesjV8-6" target="RXgc2p9tWntE05DesjV8-1">
          <mxGeometry relative="1" as="geometry" />
        </mxCell>
        <mxCell id="RXgc2p9tWntE05DesjV8-10" value="" style="ellipse;" vertex="1" parent="1">
          <mxGeometry x="90" y="230" width="10" height="10" as="geometry" />
        </mxCell>
        <mxCell id="RXgc2p9tWntE05DesjV8-11" style="edgeStyle=orthogonalEdgeStyle;rounded=0;orthogonalLoop=1;jettySize=auto;html=1;entryX=0;entryY=0.72;entryDx=0;entryDy=0;entryPerimeter=0;endArrow=none;startFill=0;" edge="1" parent="1" source="RXgc2p9tWntE05DesjV8-10" target="RXgc2p9tWntE05DesjV8-1">
          <mxGeometry relative="1" as="geometry" />
        </mxCell>
        <mxCell id="RXgc2p9tWntE05DesjV8-12" value="" style="ellipse;" vertex="1" parent="1">
          <mxGeometry x="90" y="430" width="10" height="10" as="geometry" />
        </mxCell>
        <mxCell id="RXgc2p9tWntE05DesjV8-13" style="edgeStyle=orthogonalEdgeStyle;rounded=0;orthogonalLoop=1;jettySize=auto;html=1;exitX=1;exitY=0.5;exitDx=0;exitDy=0;entryX=0;entryY=0.72;entryDx=0;entryDy=0;entryPerimeter=0;endArrow=none;startFill=0;" edge="1" parent="1" source="RXgc2p9tWntE05DesjV8-12" target="RXgc2p9tWntE05DesjV8-6">
          <mxGeometry relative="1" as="geometry">
            <Array as="points">
              <mxPoint x="120" y="435" />
              <mxPoint x="120" y="418" />
            </Array>
          </mxGeometry>
        </mxCell>
        <mxCell id="RXgc2p9tWntE05DesjV8-19" style="edgeStyle=orthogonalEdgeStyle;rounded=0;orthogonalLoop=1;jettySize=auto;html=1;exitX=0;exitY=0.645;exitDx=0;exitDy=0;exitPerimeter=0;endArrow=none;startFill=0;endFill=1;entryX=0.7;entryY=1;entryDx=0;entryDy=0;entryPerimeter=0;" edge="1" parent="1" source="RXgc2p9tWntE05DesjV8-14" target="RXgc2p9tWntE05DesjV8-1">
          <mxGeometry relative="1" as="geometry">
            <mxPoint x="190" y="290" as="targetPoint" />
          </mxGeometry>
        </mxCell>
        <mxCell id="RXgc2p9tWntE05DesjV8-20" style="edgeStyle=orthogonalEdgeStyle;rounded=0;orthogonalLoop=1;jettySize=auto;html=1;exitX=1;exitY=0.645;exitDx=0;exitDy=0;exitPerimeter=0;entryX=0;entryY=0.5;entryDx=0;entryDy=0;endArrow=none;startFill=0;" edge="1" parent="1" source="RXgc2p9tWntE05DesjV8-14" target="RXgc2p9tWntE05DesjV8-16">
          <mxGeometry relative="1" as="geometry" />
        </mxCell>
        <mxCell id="RXgc2p9tWntE05DesjV8-14" value="" style="pointerEvents=1;verticalLabelPosition=bottom;shadow=0;dashed=0;align=center;html=1;verticalAlign=top;shape=mxgraph.electrical.inductors.inductor_5;" vertex="1" parent="1">
          <mxGeometry x="290" y="310" width="80" height="14" as="geometry" />
        </mxCell>
        <mxCell id="RXgc2p9tWntE05DesjV8-15" value="" style="pointerEvents=1;verticalLabelPosition=bottom;shadow=0;dashed=0;align=center;html=1;verticalAlign=top;shape=mxgraph.electrical.capacitors.capacitor_3;direction=south;" vertex="1" parent="1">
          <mxGeometry x="440" y="370" width="40" height="70" as="geometry" />
        </mxCell>
        <mxCell id="RXgc2p9tWntE05DesjV8-16" value="" style="ellipse;" vertex="1" parent="1">
          <mxGeometry x="600" y="314" width="10" height="10" as="geometry" />
        </mxCell>
        <mxCell id="RXgc2p9tWntE05DesjV8-21" style="edgeStyle=orthogonalEdgeStyle;rounded=0;orthogonalLoop=1;jettySize=auto;html=1;exitX=0;exitY=0.5;exitDx=0;exitDy=0;exitPerimeter=0;entryX=1;entryY=0.645;entryDx=0;entryDy=0;entryPerimeter=0;endArrow=none;startFill=0;" edge="1" parent="1" source="RXgc2p9tWntE05DesjV8-15" target="RXgc2p9tWntE05DesjV8-14">
          <mxGeometry relative="1" as="geometry" />
        </mxCell>
        <mxCell id="RXgc2p9tWntE05DesjV8-24" value="" style="pointerEvents=1;verticalLabelPosition=bottom;shadow=0;dashed=0;align=center;html=1;verticalAlign=top;shape=mxgraph.electrical.signal_sources.signal_ground;" vertex="1" parent="1">
          <mxGeometry x="452.5" y="500" width="15" height="10" as="geometry" />
        </mxCell>
        <mxCell id="RXgc2p9tWntE05DesjV8-25" style="edgeStyle=orthogonalEdgeStyle;rounded=0;orthogonalLoop=1;jettySize=auto;html=1;exitX=1;exitY=0.5;exitDx=0;exitDy=0;exitPerimeter=0;entryX=0.5;entryY=0;entryDx=0;entryDy=0;entryPerimeter=0;endArrow=none;startFill=0;" edge="1" parent="1" source="RXgc2p9tWntE05DesjV8-15" target="RXgc2p9tWntE05DesjV8-24">
          <mxGeometry relative="1" as="geometry" />
        </mxCell>
        <mxCell id="RXgc2p9tWntE05DesjV8-26" value="&lt;font style=&quot;font-size: 16px;&quot;&gt;V&lt;sub&gt;S&lt;/sub&gt;&lt;/font&gt;" style="text;html=1;align=center;verticalAlign=middle;resizable=0;points=[];autosize=1;strokeColor=none;fillColor=none;" vertex="1" parent="1">
          <mxGeometry x="180" y="83" width="40" height="40" as="geometry" />
        </mxCell>
        <mxCell id="RXgc2p9tWntE05DesjV8-27" value="&lt;font style=&quot;font-size: 16px;&quot;&gt;L&lt;/font&gt;" style="text;html=1;align=center;verticalAlign=middle;resizable=0;points=[];autosize=1;strokeColor=none;fillColor=none;" vertex="1" parent="1">
          <mxGeometry x="315" y="279" width="30" height="30" as="geometry" />
        </mxCell>
        <mxCell id="RXgc2p9tWntE05DesjV8-28" value="&lt;font style=&quot;font-size: 16px;&quot;&gt;U&lt;sub&gt;L&lt;/sub&gt;&lt;/font&gt;" style="text;html=1;align=center;verticalAlign=middle;resizable=0;points=[];autosize=1;strokeColor=none;fillColor=none;" vertex="1" parent="1">
          <mxGeometry x="310" y="230" width="40" height="40" as="geometry" />
        </mxCell>
        <mxCell id="RXgc2p9tWntE05DesjV8-29" value="&lt;font style=&quot;font-size: 16px;&quot;&gt;I&lt;sub&gt;L&lt;/sub&gt;&lt;/font&gt;" style="text;html=1;align=center;verticalAlign=middle;resizable=0;points=[];autosize=1;strokeColor=none;fillColor=none;" vertex="1" parent="1">
          <mxGeometry x="310" y="350" width="40" height="40" as="geometry" />
        </mxCell>
        <mxCell id="RXgc2p9tWntE05DesjV8-30" value="" style="endArrow=classic;html=1;rounded=0;curved=1;" edge="1" parent="1">
          <mxGeometry width="50" height="50" relative="1" as="geometry">
            <mxPoint x="280" y="290" as="sourcePoint" />
            <mxPoint x="380" y="290" as="targetPoint" />
            <Array as="points">
              <mxPoint x="330" y="250" />
            </Array>
          </mxGeometry>
        </mxCell>
        <mxCell id="RXgc2p9tWntE05DesjV8-31" value="" style="endArrow=classic;html=1;rounded=0;" edge="1" parent="1">
          <mxGeometry width="50" height="50" relative="1" as="geometry">
            <mxPoint x="305" y="350" as="sourcePoint" />
            <mxPoint x="355" y="350" as="targetPoint" />
          </mxGeometry>
        </mxCell>
        <mxCell id="RXgc2p9tWntE05DesjV8-34" value="&lt;font style=&quot;font-size: 16px;&quot;&gt;U&lt;sub&gt;SW&lt;/sub&gt;&lt;/font&gt;" style="text;html=1;align=center;verticalAlign=middle;resizable=0;points=[];autosize=1;strokeColor=none;fillColor=none;" vertex="1" parent="1">
          <mxGeometry x="230" y="380" width="60" height="40" as="geometry" />
        </mxCell>
        <mxCell id="RXgc2p9tWntE05DesjV8-35" value="" style="endArrow=classic;html=1;rounded=0;curved=1;" edge="1" parent="1">
          <mxGeometry width="50" height="50" relative="1" as="geometry">
            <mxPoint x="220" y="360" as="sourcePoint" />
            <mxPoint x="210" y="450" as="targetPoint" />
            <Array as="points">
              <mxPoint x="250" y="410" />
            </Array>
          </mxGeometry>
        </mxCell>
        <mxCell id="RXgc2p9tWntE05DesjV8-36" value="&lt;font style=&quot;font-size: 16px;&quot;&gt;U&lt;sub&gt;C&lt;/sub&gt;&lt;/font&gt;" style="text;html=1;align=center;verticalAlign=middle;resizable=0;points=[];autosize=1;strokeColor=none;fillColor=none;" vertex="1" parent="1">
          <mxGeometry x="530" y="390" width="40" height="40" as="geometry" />
        </mxCell>
        <mxCell id="RXgc2p9tWntE05DesjV8-37" value="" style="endArrow=classic;html=1;rounded=0;curved=1;" edge="1" parent="1">
          <mxGeometry width="50" height="50" relative="1" as="geometry">
            <mxPoint x="510" y="370" as="sourcePoint" />
            <mxPoint x="500" y="460" as="targetPoint" />
            <Array as="points">
              <mxPoint x="540" y="420" />
            </Array>
          </mxGeometry>
        </mxCell>
        <mxCell id="RXgc2p9tWntE05DesjV8-38" value="&lt;font style=&quot;font-size: 16px;&quot;&gt;I&lt;sub&gt;O&lt;/sub&gt;&lt;/font&gt;" style="text;html=1;align=center;verticalAlign=middle;resizable=0;points=[];autosize=1;strokeColor=none;fillColor=none;" vertex="1" parent="1">
          <mxGeometry x="570" y="250" width="40" height="40" as="geometry" />
        </mxCell>
        <mxCell id="RXgc2p9tWntE05DesjV8-39" value="" style="endArrow=classic;html=1;rounded=0;" edge="1" parent="1">
          <mxGeometry width="50" height="50" relative="1" as="geometry">
            <mxPoint x="570" y="290" as="sourcePoint" />
            <mxPoint x="620" y="290" as="targetPoint" />
          </mxGeometry>
        </mxCell>
        <mxCell id="RXgc2p9tWntE05DesjV8-40" value="&lt;font style=&quot;font-size: 16px;&quot;&gt;C&lt;/font&gt;" style="text;html=1;align=center;verticalAlign=middle;resizable=0;points=[];autosize=1;strokeColor=none;fillColor=none;" vertex="1" parent="1">
          <mxGeometry x="480" y="395" width="40" height="30" as="geometry" />
        </mxCell>
        <mxCell id="RXgc2p9tWntE05DesjV8-41" value="&lt;font style=&quot;font-size: 16px;&quot;&gt;I&lt;sub&gt;C&lt;/sub&gt;&lt;/font&gt;" style="text;html=1;align=center;verticalAlign=middle;resizable=0;points=[];autosize=1;strokeColor=none;fillColor=none;" vertex="1" parent="1">
          <mxGeometry x="380" y="385" width="40" height="40" as="geometry" />
        </mxCell>
        <mxCell id="RXgc2p9tWntE05DesjV8-42" value="" style="endArrow=classic;html=1;rounded=0;" edge="1" parent="1">
          <mxGeometry width="50" height="50" relative="1" as="geometry">
            <mxPoint x="420" y="380" as="sourcePoint" />
            <mxPoint x="420" y="440" as="targetPoint" />
          </mxGeometry>
        </mxCell>
        <mxCell id="RXgc2p9tWntE05DesjV8-43" value="&lt;font style=&quot;font-size: 16px;&quot;&gt;QH&lt;/font&gt;" style="text;html=1;align=center;verticalAlign=middle;resizable=0;points=[];autosize=1;strokeColor=none;fillColor=none;" vertex="1" parent="1">
          <mxGeometry x="105" y="145" width="50" height="30" as="geometry" />
        </mxCell>
        <mxCell id="RXgc2p9tWntE05DesjV8-44" value="&lt;font style=&quot;font-size: 16px;&quot;&gt;QL&lt;/font&gt;" style="text;html=1;align=center;verticalAlign=middle;resizable=0;points=[];autosize=1;strokeColor=none;fillColor=none;" vertex="1" parent="1">
          <mxGeometry x="110" y="350" width="40" height="30" as="geometry" />
        </mxCell>
        <mxCell id="RXgc2p9tWntE05DesjV8-45" value="&lt;font style=&quot;font-size: 16px;&quot;&gt;PWM&lt;sub&gt;H&lt;/sub&gt;&lt;/font&gt;" style="text;html=1;align=center;verticalAlign=middle;resizable=0;points=[];autosize=1;strokeColor=none;fillColor=none;" vertex="1" parent="1">
          <mxGeometry x="35" y="240" width="70" height="40" as="geometry" />
        </mxCell>
        <mxCell id="RXgc2p9tWntE05DesjV8-46" value="&lt;font style=&quot;font-size: 16px;&quot;&gt;PWM&lt;sub&gt;L&lt;/sub&gt;&lt;/font&gt;" style="text;html=1;align=center;verticalAlign=middle;resizable=0;points=[];autosize=1;strokeColor=none;fillColor=none;" vertex="1" parent="1">
          <mxGeometry x="35" y="440" width="70" height="40" as="geometry" />
        </mxCell>
      </root>
    </mxGraphModel>
  </diagram>
</mxfile>
